<?xml version="1.0" encoding="utf-8"?>
<!-- Generator: Adobe Illustrator 19.2.1, SVG Export Plug-In . SVG Version: 6.00 Build 0)  -->
<svg version="1.1" id="Layer_1" xmlns="http://www.w3.org/2000/svg" xmlns:xlink="http://www.w3.org/1999/xlink" x="0px" y="0px"
	 viewBox="0 0 390.4 89.9" style="enable-background:new 0 0 390.4 89.9;" xml:space="preserve">
<style type="text/css">
	.st0{fill:#ED3768;}
</style>
<g>
	<path class="st0" d="M247.8,55.3c0.5-1.2-0.8-2.5-2.2-2.5c-4-1.7-9.2-0.4-13.5-0.3c-5.6,0.1-9-0.7-12.9-3.9
		c-0.1-0.2-0.2-0.4-0.2-0.6c-0.6-1.7-0.8-3.5-0.9-5.3c0.2-2.9,0.4-5.9,0.3-8.8c-0.2-3.6-0.1-12.3,5.4-12.8c1.2-0.1,3,0.1,4.8,0.5
		c-0.4,5.5-0.9,11-1.5,16.5c-0.1,0.8,0.5,1.6,1.1,2c5.6,4,8.6,1.5,15,1.3c0.5,0,1.1-0.2,1.5-0.4c1.1,0.1,2.2-0.4,2.5-1.8
		c0.8-4.9,0.6-9.9,0.3-14.9c0.6-3.3,2-7.3,1.1-10.6c-0.9-3.2-4.5-6.2-7.7-8.9c-1.1-1.1-2.2-2.3-3.4-3.4c-0.7-0.7-1.6-0.9-2.3-0.8
		c-0.3-0.1-0.6-0.2-1-0.2c-4-0.4-7.9,0.1-11.9,0.4c-3.2,0.3-7.8,0.3-10.6,1.9c-2.2,1.3-4.2,4.7-6.1,6.5c-1.9,1.8-3.3,3.5-4.3,5.9
		c-0.1,0.1-0.1,0.3-0.1,0.4c-0.2,0.2-0.3,0.4-0.4,0.7c0,0.1-0.1,0.3-0.1,0.4c-0.1,0.4,0,0.8,0.1,1.1c0.2,1.6,0.3,3.3,0.4,5
		c0.1-0.1,1.2,0.4,2.1,0.8c-0.8,1-1.4,1.9-2,2.6c0.1,5.3-0.1,10.8-0.3,15.9c-0.1,0.1-0.1,0.2-0.2,0.3c-1.5,6.4-1.9,13-1.3,19.5
		c0.1,0.1,0.3,0.3,0.5,0.4c-0.1,0.1-0.3,0.2-0.4,0.2c0.1,0.8,0.2,1.7,0.3,2.5c0.6,4.4,0.6,12.4,3.9,15.9c4.2,4.5,11.7,6.4,17.6,7.2
		c3.7,0.5,7.3,0.6,11,0.4c0.8-1,1.6-2,2.4-3c0.3,0.7,0.7,1.4,1.2,2.6c3.4-0.8,6.4-2.7,9.8-3.3c0.9-0.2,1.3-0.8,1.5-1.5
		c0.6-0.5,1-1.3,0.9-2.3C247.7,72.5,249.7,63.8,247.8,55.3z M246,18.4c0.2,0.1,0.4,0.3,0.7,0.4c-0.3,0.1-0.6,0.2-0.9,0.2
		c-0.1,0-0.1-0.4-0.2-0.6C245.7,18.5,245.9,18.4,246,18.4z M239.7,16.4l0.1,0.3l-0.3,0L239.7,16.4z M227.8,8.8l-0.2,0.3l-0.1-0.3
		L227.8,8.8z M220,13c0.1,0.1,0.2,0.2,0.3,0.3l-0.3,0.3c-0.1-0.1-0.3-0.2-0.2-0.3C219.7,13.2,219.9,13.1,220,13z M202.4,16.9
		c-0.1-0.1-0.3-0.2-0.3-0.4c0-0.1,0.2-0.2,0.3-0.3c0.1,0.1,0.2,0.2,0.3,0.4C202.6,16.7,202.5,16.8,202.4,16.9z M201.4,56.2l-0.3-0.2
		l0.3-0.1L201.4,56.2z M214.6,27.3l0,0.4l-0.3-0.2L214.6,27.3z M208.6,10c1.2,0.6,1.9,0.9,2.6,1.3c-1.3,0.7-2.6,1.4-4,1.9
		c-0.4,0.1-1.1-0.6-1.7-0.9C206.5,11.5,207.5,10.8,208.6,10z M205.7,69.5l-0.3-0.3c0.1-0.1,0.2-0.3,0.3-0.2c0.1,0,0.2,0.2,0.3,0.3
		C205.9,69.3,205.8,69.4,205.7,69.5z M207.5,58.5c-0.3-0.1-0.6-0.2-0.9-0.3c0.1-0.1,0.3-0.4,0.4-0.4c0.3,0.1,0.6,0.2,1,0.4
		C207.8,58.2,207.6,58.5,207.5,58.5z M208.9,71.6l-0.1-0.3l0.3,0L208.9,71.6z M209,27.5c-0.2-0.3-0.5-0.7-0.5-1.1
		c0-0.2,0.3-0.5,0.5-0.7c0.1,0.3,0.3,0.6,0.4,0.9C209.3,26.9,209.2,27.2,209,27.5z M209.9,46.3c0.2-0.6,0.8-1,1.2-1.5
		c0.2,0.4,0.4,0.8,1.2,2.2c-0.4,0.1-1,0.4-1.6,0.3C210.4,47.3,209.8,46.5,209.9,46.3z M212.3,58.4c-0.7-0.1-1.4-0.2-2.1-0.3
		c0,0-0.1,0-0.1,0c0,0,0.1-0.1,0.1-0.1c0,0-0.1,0.1-0.1,0c0.1-0.9,0.3-1.8,0.4-2.7l0.2-0.2l-0.1,0.2l0,0l0,0
		c-0.1,0.9-0.3,1.8-0.4,2.6c0,0,0,0,0,0c0.7-0.4,1.5-0.7,2.2-1.1C212.3,57.5,212.3,57.9,212.3,58.4z M214.4,79.1l0-0.3l0.3,0.2
		L214.4,79.1z M214.5,36.6c-0.1-0.1-0.4-0.2-0.4-0.3c0.1-0.3,0.2-0.6,0.3-0.9c0.2,0.2,0.5,0.4,0.5,0.6
		C214.9,36.2,214.6,36.4,214.5,36.6z M219.6,81.5l-2.3-3.1c0.2-0.2,0.5-0.4,0.8-0.6c0.8,1,1.5,2.1,2.2,3.1
		C220.3,81,219.8,81.3,219.6,81.5z M220.6,59.8c-0.3,0-0.6-0.3-0.9-0.5c0.3-0.2,0.6-0.5,0.9-0.5c0.3,0,0.6,0.3,0.9,0.4
		C221.2,59.5,220.9,59.8,220.6,59.8z M225.4,74.8c-0.1-0.1-0.3-0.2-0.3-0.3c0.1-0.3,0.2-0.6,0.3-0.9c0.2,0.2,0.5,0.4,0.4,0.6
		C225.8,74.4,225.6,74.6,225.4,74.8z M227.7,83.7c-0.1-0.3-0.3-0.5-0.3-0.8c0-0.1,0.2-0.2,0.3-0.3c0.1,0.3,0.3,0.6,0.3,0.8
		C228.1,83.4,227.8,83.5,227.7,83.7z M238.7,82.1c-0.1,0-0.2,0-0.4,0c-0.6,0-1.2,0.1-1.8,0.1l0,0c0.1-0.2,0.1-0.5,0.1-0.7
		c0,0.2-0.1,0.4-0.1,0.6c0,0,0,0,0,0l0,0c0.6,0,1.1,0,1.7,0C238.4,82.1,238.5,82.1,238.7,82.1c-0.2-0.9-0.4-1.8-0.6-2.7
		c-0.7-0.7-1.5-1.3-2.2-2l0.1-0.1c0,0-0.1,0.1-0.1,0.1c0-0.1-0.1-0.2-0.1-0.3l-0.3-0.2c0.1,0,0.2,0.1,0.2,0.1c0,0,0,0.1,0,0.1
		l0.2,0.2l0,0c0.7,0.7,1.5,1.3,2.2,2c0,0-0.1,0.1-0.1,0.1c0,0,0.1-0.1,0.1-0.1C238.3,80.3,238.5,81.2,238.7,82.1
		C238.7,82.1,238.7,82.1,238.7,82.1z M241.2,81.9l0.1-0.1L241.2,81.9c0-0.1-0.1-0.1-0.1-0.2c-0.1,0-0.2-0.1-0.2-0.1
		c-0.1,0,0-0.2,0-0.3c0.1,0.1,0.1,0.3,0.2,0.4c0.1,0,0.1,0,0.2,0.1c0.1,0,0.2,0.1,0.3,0.1C241.5,81.9,241.4,81.9,241.2,81.9z"/>
	<path class="st0" d="M277,2.8c-4.6-2.5-11.3-1.5-16.8-1.4c-0.8-0.2-1.7-0.2-2.6,0c-0.6,0.2-1,0.5-1.3,1c-0.4,0-0.9,0-1.3,0
		c-0.8,0.1-1.3,0.5-1.6,1.1c-1,0.4-1.8,1.3-2.1,2.7c-1,4.1,1.1,8.4,1.5,12.5c0,0.1,0,0.1,0,0.1c-0.5,2.4,1.4,4.1,3.8,3.7
		c3.9-0.6,6.8,0.7,10.6,0.8c3.8,0.2,7.1-0.4,10.7-1.5c1.1-0.3,2.3-1.5,2.1-2.8c-0.5-3.8-0.6-7.6-0.9-11.4
		C279.1,5.9,278.7,3.7,277,2.8z M276.1,8.4c-0.4-0.2-0.8-0.5-1.2-0.7c0.3-0.2,0.6-0.6,0.8-0.5c0.5,0.1,0.9,0.4,1.4,0.6
		C276.8,8,276.6,8.2,276.1,8.4z"/>
	<path class="st0" d="M278.4,32.9c0.4-0.3,0.7-0.7,0.9-1.1c0.8-1.8-0.5-3.7-2.5-3.3c-0.9,0.2-1.8,0.3-2.8,0.5
		c-0.4,0.1-0.6,0.2-0.9,0.4c-2.8,0-7.1-0.4-8.7-0.5c-3.3-0.2-5.9,0-8.8,0.7c-0.6-0.8-2-1-2.7,0.1c-1.7,2.8-1,5.9-0.6,9
		c0.1,0.8,0.3,1.6,0.5,2.4c-0.2,6.8,0.4,9.1,0.6,15.9c0.2,7.2-0.6,14.6-0.9,21.8c-0.5,13.1,15.5,6.7,23.6,8.5
		c1.7,0.4,2.9-0.8,3.1-2.4c0.5-4.1,0.4-8-0.1-12C280.9,58.3,280.1,47.6,278.4,32.9z M253.4,37.1C253.4,37.1,253.4,37.1,253.4,37.1
		L253.4,37.1L253.4,37.1c0,0-0.1-0.1-0.1-0.1l0,0c-0.2-0.2-0.4-0.3-0.5-0.5c0.2,0.2,0.4,0.3,0.5,0.5l0.2-0.1
		C253.5,36.9,253.4,37.1,253.4,37.1z"/>
	<path class="st0" d="M335.9,13.7c0.2-3.5,0.5-6.9-0.2-10.5c-0.3-1.5-1.8-1.8-3-1.3c-0.5-0.3-1-0.6-1.7-0.6
		c-6.7-0.5-13.7-0.8-20.4-1c-4.9-0.2-9.9,0.7-14.8,1.5c-0.4-0.1-0.9-0.1-1.3-0.2c-3.2-0.4-6.2,0.4-9.3,1c-1.1-1.2-3.5-1.2-4,0.8
		c-0.9,4.3,0.9,8.9,1,13.2c0.1,6.5-0.3,12.6,1.3,19c0.2,0.8,1,1.2,1.8,1c0,0,0,0,0,0c0.2,0.1,0.4,0.2,0.7,0.2
		c5.5,0.3,11,0.5,16.5,0.7c0,0.6-0.1,1.3,0,2c-0.2,5.3-0.5,10.6-0.6,15.9c-0.2,2.1-0.4,4.3-0.3,6.5c0,0.5,0.1,0.9,0.4,1.3
		c0.2,7.5,1,15,0.6,22.5c-0.1,1.1,1.1,2.4,2.2,2.2c0.2,0,0.5-0.1,0.7-0.1c0.6,0.4,1.3,0.6,2.1,0.2c1-0.3,1.9-0.6,2.8-0.9
		c2.3,0.7,4.3,0.4,6.6-0.7c1.4-0.6,1.4-2.8,0.3-3.7c0.1-0.3,0.1-0.6,0.2-0.9c0.3-2.6-0.3-5.4-0.2-8.1c0-3.6,0.7-8.5-0.6-12
		c0.4-8,1-16.1,0.7-24.1c5.3,0,10.6,0.1,15.7,0.9c0.9,0.2,2-0.2,2.3-1.3c1-4.7,1.3-9.2,1.2-14c0-2.1,0.7-4.3,0.4-6.4
		C336.7,16.3,336.3,15.1,335.9,13.7z M287.8,35.4l-0.1-0.4l0.4,0L287.8,35.4z M296.3,16.8c-0.7,0.3-1.5,0.3-2.2,0.3l-0.1,0.1
		c-0.1-0.1-0.3-0.3-0.3-0.4c0-0.3,0.2-0.6,0.3-0.9v0h0l0,0L294,16c0.7-0.3,1.4-0.6,2.1-0.9C296.2,15.7,296.4,16.7,296.3,16.8z
		 M298.6,19.5c-0.5-0.3-1.2-0.6-1.1-0.8c0.1-0.5,0.5-1.2,0.8-1.2c0.5,0.1,0.9,0.5,1.4,0.8C299.4,18.7,299.1,19,298.6,19.5z
		 M309.6,27.3l0.2-0.4l0.2,0.4L309.6,27.3z M327.9,20.3L327.9,20.3c0.1-0.2,0.3-0.5,0.4-0.7c-0.1,0.3-0.2,0.5-0.3,0.8L327.9,20.3
		c0.1,0.1,0.1,0.1,0.1,0.1c0,0-0.1,0.1-0.1,0.1c0,0.1,0,0.2-0.1,0.2c0,0.1-0.2,0-0.3,0c0.1-0.1,0.3-0.2,0.4-0.3
		C327.8,20.5,327.8,20.4,327.9,20.3z M328,23.4c-0.3-0.1-0.6-0.3-0.9-0.4c0.1-0.1,0.3-0.4,0.4-0.3c0.3,0.1,0.6,0.3,0.9,0.4
		C328.3,23.2,328.1,23.5,328,23.4z M332.8,31c-0.1-0.2-0.2-0.3-0.2-0.5c0.1,0.1,0.3,0.1,0.4,0.2C332.9,30.8,332.8,30.9,332.8,31z
		 M334.4,16.2c-0.3-0.1-0.5-0.4-0.8-0.6c0.2-0.1,0.5-0.3,0.7-0.4c0.3,0.2,0.5,0.4,0.8,0.6C334.8,15.9,334.5,16.2,334.4,16.2z"/>
	<path class="st0" d="M389.2,13.2c0.1-3.4,0.5-6.9,0.2-10.3c-0.1-1-0.8-2-1.9-1.9c-0.6,0-1.2,0.1-1.8,0.1c-0.2-0.1-0.5-0.2-0.8-0.2
		c-2.5,0-4.9-0.3-7.3,0c-1.4,0.1-1.8,1.6-1.1,2.5c-1,3.3-0.5,7-0.3,10.4c0-0.1,0.1-0.3,0.2-0.5c0.2,0.1,0.5,0.2,0.7,0.4
		c-0.2,0.3-0.3,0.5-0.5,0.8c-0.2-0.2-0.4-0.5-0.5-0.7c0,0.5,0.1,1,0.1,1.4c0.2,5.5-0.3,10.9-0.3,16.4c0,0,0,0,0,0l0.2,0
		c0,0-0.2,0.1-0.2,0.1c0,0,0,0,0,0l0,0c0,0.2,0,0.3,0,0.5c-1,0-2.1-0.1-3-0.2c-1.3-0.1-2.6-0.3-3.9-0.6c-1.7-3.3-1-8.4-1-11.5
		c0-5.3,0.1-10.6-0.4-15.9c0,0,0,0,0-0.1c0.1-0.3,0.3-0.6,0.3-1c0.1-0.8-0.2-1.8-1.1-2c-5.1-1.1-10.4-1.1-15.5,0.2
		c-0.4,0.1-0.7,0.3-0.9,0.5c-3.2-0.2-6.4-0.5-9.6,0c-0.8,0.1-1.2,0.9-1.1,1.7c-2.9,5.1-0.8,12.4-0.2,18c0.8,7.5-1.6,14.6,1.2,21.8
		c1.8,4.6,9.7,5.3,13.7,6.7c3,1.1,7.3,0.7,10.5,0.9c2.3,0.2,4.5,0.5,6.8,0.8c0,0.5-0.1,1.1-0.1,1.7c0,0.5-0.1,1.1-0.1,1.7
		c-6.5-0.2-13,1.6-19.5,1.5c-2.3,0-10.2-0.9-11.2,2.6c-0.7,2.3-0.9,5-1,7.6c-0.2,0.1-0.3,0.3-0.3,0.5c0.1,0.9,0.2,1.8,0.3,2.7
		c0,1,0.1,2,0.1,3c0.2,3.1-0.1,6.6,0.9,9.6c0.1,0.9,0.1,1.8,0.2,2.7c0.1,0.7,0.5,1.3,1.3,1.3c14.4,0.8,29.2,1.1,43.7,1
		c1.3,0,2.1-0.6,2.6-1.5c0.5-0.4,0.8-0.9,0.8-1.7C388.9,60.6,392,36.7,389.2,13.2z M341.7,15.4c-0.3,0.5-0.8,1-1.8,2.1
		c0.1-1.2,0-1.7,0.2-1.9c0.3-0.4,0.9-0.8,1.3-1.1C341.5,14.8,341.8,15.2,341.7,15.4z M343.9,31.2c-0.2-0.1-0.3-0.3-0.4-0.4
		c0.1-0.1,0.2-0.3,0.3-0.3c0.1,0,0.2,0.2,0.3,0.3L343.9,31.2z M344.7,10.5c-0.3,0-0.9-0.8-0.8-1c0.3-0.6,0.8-1,1.2-1.5
		c0.4,0.5,0.9,1,1.7,2C345.8,10.2,345.2,10.5,344.7,10.5z M348.2,22.4c-0.1-0.3-0.3-0.5-0.3-0.8c0-0.1,0.2-0.2,0.3-0.3
		c0.1,0.1,0.4,0.3,0.4,0.4C348.5,21.9,348.3,22.1,348.2,22.4z M349.5,19.1c-0.1,0-0.4-0.3-0.5-0.5c0,0,0.2-0.3,0.3-0.3
		c0.3,0.1,0.6,0.2,0.9,0.3C350,18.8,349.8,19.1,349.5,19.1z M359.1,36.5c-0.1-0.1-0.3-0.3-0.3-0.3c0.1-0.3,0.3-0.5,0.4-0.8
		c0.1,0.1,0.2,0.2,0.3,0.4C359.4,36,359.3,36.2,359.1,36.5z M369.7,34.2c-0.1,0-0.2-0.2-0.3-0.3c0.2,0,0.4,0.1,0.7,0.1
		C370,34.1,369.9,34.2,369.7,34.2z M342.6,78l0.2-0.3l0.1,0.3L342.6,78z M345.5,83c0,0,0,0.1,0,0.1L345.5,83
		c-0.1,0.8-0.2,1.7-0.3,2.5c-0.3-0.1-0.5-0.3-0.8-0.4c0.4-0.6,0.7-1.3,1.1-1.9C345.5,83.1,345.5,83.1,345.5,83
		c-0.1-0.1-0.2-0.2-0.2-0.4c0-0.1,0.1-0.2,0.2-0.2C345.5,82.6,345.5,82.8,345.5,83C345.5,83,345.5,83,345.5,83z M353.8,59.1l0,0.3
		l-0.3-0.2L353.8,59.1z M353.5,67.1l0.2-0.3l0.1,0.4L353.5,67.1z M373.6,36.6c-0.2,0-0.6-0.3-0.6-0.5c0-0.2,0.3-0.5,0.4-0.8
		c0.2,0.2,0.5,0.4,0.7,0.6C374,36.2,373.8,36.5,373.6,36.6z M374.5,54l-0.3-0.2l0.3-0.1L374.5,54z M387.3,21.4
		c-0.5-0.1-1.4-0.8-1.3-1.2c0.1-0.7,0.8-1.3,1.2-1.9c0.4,0.5,0.8,1,1.5,1.7C388.1,20.6,387.6,21.4,387.3,21.4z"/>
	<g>
		<path class="st0" d="M49.6,57c1.7-7.7,0-15.8-0.3-23.5c-0.4-8.9-1.4-18.9-0.2-27.6c0.2-1.7-0.6-2.6-1.7-2.9
			C43.6-0.4,32.8,3,29,2.7c-4.4-0.3-17-1.9-15.2,6c0,0,0,0.1,0,0.1c-0.4,6.4-0.2,12.8,0.1,19.2c-0.3,1.2-0.5,2.4-0.5,3.6
			c0,1.4,1.3,2.8,2.7,2.7c3.4-0.2,6.8-0.4,10.1-0.6c0.1-0.2,0.2-0.3,0.3-0.5c0.3,0.1,0.5,0.3,0.8,0.4c1.8-0.2,3.6-0.4,5.4-0.6
			c0.1,0,0.1-0.1,0.2-0.1c0,0,0,0,0.1,0c0.9,2,1.2,9.2,1.4,17.1c-0.5,3.5-0.5,7-0.3,10.6c-0.4,1-0.7,2.1-0.9,3.1
			c-1.2,4.6-7,5.8-8.2-0.2c-0.1,0-0.1-0.1-0.2-0.1c0.1,0,0.1,0.1,0.2,0.1c-0.1-0.5-0.2-1-0.2-1.5c-0.3-5,1.6-9.9,1.3-15
			c-0.1-0.9-0.6-1.6-1.4-1.9c-1.6-0.5-3.2-1-4.7-1.7c-1.2-0.6-2.4,0.3-2.6,1.3c-1-0.2-2-0.4-3-0.5c-0.6,0-1.2,0-1.9,0
			c0.2,0.1,0.4,0.2,0.5,0.3c-0.4,0.2-0.7,0.7-1.1,0.7c-0.4-0.1-0.8-0.5-1.2-0.8c0.1,0,0.1,0,0.2-0.1c-3.1,0.2-6.2,0.8-9.3,1.1
			C0.7,45.5-0.1,46.1,0,47c0.4,6.9,0.5,13.6,0.4,20.5c0,2.8-0.5,6.2,0,9.1c-1.9,16.4,28.1,9.7,37.3,8.2C51.4,82.7,47.5,66.7,49.6,57
			z M43.5,79.8l0.1,0.4l-0.3,0L43.5,79.8z M38.7,50.3c0.8,0.6,1.5,1,1.5,1.3c0,0.6-0.4,1.2-0.7,1.8c-0.4-0.3-1.1-0.5-1.1-0.8
			C38.2,51.9,38.5,51.3,38.7,50.3z M17.2,26.3c-0.7-0.3-1.1-1.1-1.6-1.7c0.6-0.4,1.2-1,1.7-1c0.5,0,1,0.8,1.7,1.4
			C18.2,25.6,17.4,26.4,17.2,26.3z M18.9,8.7c-0.4-0.2-0.8-0.4-1-0.7c-0.1-0.1,0.2-0.6,0.4-0.9c0.4,0.2,0.8,0.4,1.2,0.6
			C19.2,8.1,19.1,8.4,18.9,8.7z M20.4,16.2l0.2-0.3l0.1,0.3L20.4,16.2z M25.9,9.4l0,0.3l-0.3-0.2L25.9,9.4z M25.1,12.4
			c0,0.2-0.1,0.3-0.1,0.5c-0.1,0-0.3,0.1-0.4,0c-0.1-0.1-0.1-0.3-0.2-0.4C24.7,12.5,24.9,12.4,25.1,12.4z M25.2,30.3
			c-0.1,0.1-0.4-0.2-0.7-0.3c0.2-0.4,0.4-0.8,0.7-1.2c0.3,0.4,0.6,0.6,0.6,0.7C25.7,29.8,25.4,30.1,25.2,30.3z M26.4,26.3
			c-0.2-0.1-0.5-0.3-0.7-0.4c0.1-0.1,0.3-0.3,0.3-0.3c0.3,0.1,0.5,0.3,0.7,0.4C26.7,26.1,26.5,26.2,26.4,26.3z M28.8,30.9L28.8,30.9
			c-0.1,0.1-0.2,0.2-0.3,0.3c0.1-0.1,0.1-0.3,0.2-0.4c0.1-0.1,0.2-0.2,0.2-0.3c0.2-0.5,0.3-0.9,0.5-1.4c0.1,0.1,0.3,0.2,0.4,0.3
			c-0.3,0.3-0.6,0.7-0.9,1C28.8,30.7,28.8,30.8,28.8,30.9z M14.6,78.2c-0.6,0.8-1.3,1.5-1.9,2.3c-0.2-0.3-0.6-0.7-0.5-0.8
			c0.6-0.7,1.3-1.4,2-2c0.5-0.1,1-0.2,1.5-0.3C15.3,77.7,15,77.9,14.6,78.2z M28.2,80.4c-0.1,0-0.3-0.1-0.3-0.1
			c0-0.1,0.1-0.3,0.1-0.4c0.1,0,0.3,0.1,0.3,0.1C28.3,80.2,28.2,80.3,28.2,80.4z"/>
		<path class="st0" d="M190.9,7.3c-0.1-0.2-0.2-0.4-0.3-0.6c0-1-0.4-2-1.3-2.4c-1.8-0.8-3.5-0.9-5.5-1.2c-2.1-0.2-4.2-0.7-6.3-0.1
			c-0.1,0-0.3,0.1-0.4,0.2c-3.3-0.4-6.8,0.2-10.2,0c-2.5-0.1-4.8,0-7.2,0.4c-2.1,0.3-3.5,1.6-5.3,2.4c-1,0.4-1.4,1.9-1.2,2.8
			c0.8,2.7,1,6.4,0.9,10.1c-0.1,1.3-0.3,2.6-0.5,3.8c-1.4,4.3-1.5,9.4-1.9,13.8c0,0.3,0,0.6-0.1,0.9c-0.7-1.9-1.4-3.7-1.9-5.5
			c-2.3-7.7-5.1-15.2-7.5-22.8c0-0.3,0-0.6,0-1c-0.2-1.1-0.3-2.2-0.4-3.3c-0.2-2-1.5-3.3-3.4-3.4c-5.4-0.4-11-0.1-16.5,0.4
			c0,0,0,0,0.1,0.1c-0.1,0.1-0.3,0.1-0.4,0.2c-0.1,0-0.2-0.1-0.4-0.1c0,0,0.1,0,0.1-0.1c-2.6,0.2-5.1,0.5-7.6,0.8
			c-0.2-0.2-0.6-0.2-0.8,0.1c-1,0.2-1.8,1.1-1.4,2.2c0.3,1.1,0.4,1.4,0.7,1.8c-3.1,20.5-0.6,42.7-0.4,63.3c0,4.2-2.2,13.8,1.1,17.1
			c2,2,5.1,3,7.9,2.6c0.8,0,1.5-0.2,2.1-0.7c0.6-0.3,1.2-0.8,1.7-1.3c0.8-0.8,0.6-2.3-0.2-3c1.2-7.3,0.3-15.1,0.9-22.5
			c0.8-9.7-0.1-19.4-0.9-29c-0.4,0.2-0.9,0.3-1.3,0.5c-0.1-0.3-0.4-0.8-0.3-0.8c0.5-0.3,1-0.6,1.5-0.8c0-0.2,0-0.5-0.1-0.7
			c0.1,0.2,0.1,0.4,0.2,0.6l0,0c0.1,0.3,0.2,0.5,0.5,1c-0.1,0-0.1,0-0.2,0.1c1.3,4.7,2.6,9.5,4.1,14.2c2.3,7.2,3.9,14.8,5.3,22.3
			c0.8,4.3,0.8,14.4,4,17.6c0,0,0,0,0,0c0.4-0.4,0.8-0.7,1.2-1.1c0.1-0.1,0.1-0.2,0.2-0.4l0,0c0,0,0,0,0,0c0,0,0-0.3,0-0.3l0.1,0.4
			c-0.1,0.1-0.2,0.2-0.3,0.3c-0.2,0.5-0.5,1-0.7,1.5c4,3.6,7.8,1.3,12.2-0.1c1.1-0.4,1.9-1.3,1.9-2.5c0-3.4,3.3-9,4.1-12.5
			c1-4.6,1.5-9.3,2.3-14c1.2-7,2.1-14.1,3.5-21.1c-0.2,5.8-0.4,11.6-0.9,17.4c-0.9,10.2-2.7,20.9,0.4,30.8c0.3,1,1.4,2.1,2.6,2
			c7.4-0.9,16.4-1.9,23.8-1c0.9,0.1,1.4-0.4,1.6-1.1c0.8-0.3,1.5-1.3,1.1-2.2c-0.9-2.3-0.9-4.8-0.7-7.3c0.5-0.4,0.8-1,0.9-1.8
			c0.2-2.5,0.1-5-0.1-7.5c0-10.3,0.6-20.5,0.3-30.8c-0.2-5.3-0.8-10.6-0.6-15.9C191.1,15.9,192.6,11.5,190.9,7.3z M119.7,18.8
			L119.7,18.8c-0.3,0.2-0.5,0.4-0.8,0.6c0.1-0.1,0.2-0.3,0.3-0.4C119.4,19,119.5,18.9,119.7,18.8c0-0.1,0.1-0.1,0.2-0.1
			C119.9,18.8,119.8,18.8,119.7,18.8z M121.9,15.6c-0.2,0.2-0.3,0.5-0.5,0.7c0.1-0.3,0.3-0.5,0.4-0.8c0.2-0.3,0.3-0.5,0.4-0.8
			C122.1,15,122,15.3,121.9,15.6z M123.3,8.4l0.2-0.3l0.2,0.4L123.3,8.4z M126.8,38.2c-0.1,0-0.2-0.2-0.3-0.3
			c0.1-0.1,0.2-0.3,0.3-0.3c0.1,0,0.2,0.2,0.3,0.3C127,38.1,126.9,38.3,126.8,38.2z M129.4,49.1c0,0-0.1-0.2-0.1-0.3
			c0.2,0,0.4,0.1,0.7,0.2C129.7,49.1,129.5,49.1,129.4,49.1z M130,33.1l-0.2-0.4l0.3,0L130,33.1z M134,39.3c-0.1,0-0.3-0.1-0.4-0.1
			c0-0.1,0.1-0.3,0.1-0.3c0.1,0,0.3,0.1,0.4,0.1C134.1,39.2,134.1,39.3,134,39.3z M134.3,68.8l0.2-0.3l0.1,0.4L134.3,68.8z
			 M135.5,44.8l-0.1-0.3l0.3,0L135.5,44.8z M137.2,69.1c-0.3-0.1-0.6-0.2-0.9-0.3c0.2-0.2,0.4-0.5,0.6-0.5c0.3,0.1,0.5,0.3,0.7,0.5
			C137.5,68.9,137.4,69.1,137.2,69.1z M137.8,50.5c-0.1-0.3-0.3-0.5-0.4-0.8c0-0.1,0.2-0.2,0.3-0.4c0.1,0.1,0.4,0.3,0.4,0.3
			C138,49.9,137.9,50.2,137.8,50.5z M139.1,14.4c-0.6-0.7-1.2-1.4-1.9-2.1l0,0l-0.2-0.1c0,0,0.2,0.1,0.2,0.1c0,0,0,0,0,0l0,0
			l2.6,1.6C139.5,14,139.1,14.4,139.1,14.4z M145.4,27.1c-0.3-0.2-0.6-0.4-0.8-0.7c-0.1-0.2,0.1-0.5,0.1-0.8
			c0.4,0.2,0.8,0.2,0.9,0.5C145.7,26.3,145.4,26.7,145.4,27.1z M148.5,50.2l0.2-0.3l0.1,0.4L148.5,50.2z M151.1,49l-0.4-0.1
			c0-0.1,0.1-0.3,0.1-0.4c0.1,0,0.3,0.1,0.3,0.1C151.2,48.7,151.1,48.9,151.1,49z M151.9,63.4l-0.1-0.3l0.3,0L151.9,63.4z
			 M155.2,62.4c-0.1-0.1-0.3-0.3-0.3-0.4c0-0.1,0.2-0.2,0.3-0.3c0.1,0.1,0.2,0.3,0.3,0.4C155.4,62.1,155.3,62.3,155.2,62.4z
			 M156.1,31.7c-0.1,0-0.2-0.2-0.4-0.3c0.2-0.1,0.3-0.2,0.5-0.2c0.1,0,0.2,0.2,0.3,0.3C156.4,31.6,156.3,31.7,156.1,31.7z
			 M158.7,16.9l0.1,0.3l-0.3,0L158.7,16.9z M158.5,30.6c-0.1,0-0.2-0.2-0.3-0.3c0.1-0.1,0.2-0.2,0.3-0.2c0.1,0,0.2,0.2,0.3,0.3
			C158.7,30.4,158.6,30.6,158.5,30.6z M162,19.3c0.4-0.2,0.9-0.5,1.6-0.9c0.6,0.7,1.1,1.3,1.6,1.9c-0.5,0.2-1.1,0.7-1.4,0.6
			C163.2,20.5,162.6,19.9,162,19.3z M162.5,44.3l0.4,0.1c0,0.1,0,0.3-0.1,0.4c-0.1,0.1-0.3,0.1-0.5,0.1
			C162.4,44.7,162.4,44.5,162.5,44.3z M163.3,64.5c-0.3-1.3-0.6-2.7-0.9-4c0,0-0.1,0-0.1-0.1c0,0,0.1,0,0.1,0
			c0.1-0.3,0.2-0.6,0.3-0.9c0.3,0.2,0.7,0.5,1,0.7l0,0c0.3,0.4,0.8,0.8,0.8,1.2c0,1-0.2,2-0.3,3C164.1,64.6,163.3,64.6,163.3,64.5z
			 M164.3,68.2c0,0.1,0,0.1,0,0.2C164.2,68.4,164.2,68.3,164.3,68.2c-0.1,0-0.1,0-0.1,0l0,0v0C164.2,68.3,164.2,68.2,164.3,68.2
			l0-0.1c0.2,0,0.3,0,0.5,0C164.6,68.2,164.4,68.2,164.3,68.2z M164.3,38.2c-0.2-0.1-0.3-0.5-0.5-0.8c0.3-0.1,0.6-0.3,0.8-0.2
			c0.3,0.2,0.4,0.5,0.7,0.8C164.9,38.1,164.5,38.3,164.3,38.2z M166.8,45.7c-0.3-0.4-0.7-0.8-0.9-1.3c-0.1-0.1,0.3-0.4,0.6-0.8
			c0.4,0.4,0.9,0.7,1.1,1.1C167.6,44.9,167.1,45.4,166.8,45.7z M167.6,40.4c-0.2-0.4-0.4-0.8-0.6-1.1c0.3-0.1,0.7-0.4,0.9-0.3
			c0.2,0.1,0.3,0.6,0.5,0.9C168.2,40,167.9,40.2,167.6,40.4z M168.5,4.2l-0.3-0.2l0.3-0.1L168.5,4.2z M170.4,86.1
			c-0.7-0.2-1.2-1-1.8-1.6c0.6-0.6,1.4-1.7,1.8-1.6c0.8,0.2,1.4,1.1,2.6,2.3C171.7,85.7,170.9,86.2,170.4,86.1z M173.8,53.6
			c-0.1-0.1-0.3-0.2-0.3-0.3c0-0.1,0.2-0.2,0.3-0.3c0.1,0.1,0.2,0.2,0.3,0.3C174,53.4,173.9,53.5,173.8,53.6z M176,79.6
			c0.1-0.2,0.2-0.4,0.2-0.6c0.1,0.2,0.1,0.3,0.2,0.5C176.2,79.5,176.1,79.5,176,79.6z M178.7,48.5L178.7,48.5
			c-0.4-0.5-0.9-1-1.3-1.5c0.2-0.2,0.4-0.3,0.7-0.5c0.3,0.6,0.6,1.1,0.9,1.7l0,0c0.2,0.3,0.5,0.6,0.7,0.9
			C179.3,49,179,48.8,178.7,48.5z M180.2,53.9c-0.2,0-0.3,0-0.5,0c0.2,0,0.3-0.1,0.5-0.1c0-0.1,0-0.1,0-0.2c0,0.1,0,0.1,0.1,0.2
			c0,0,0,0,0,0L180.2,53.9z M184,78.7c-0.2-0.1-0.5-0.1-0.7-0.2c0.1-0.1,0.2-0.3,0.4-0.3c0.1,0,0.2,0.1,0.4,0.2
			C184,78.5,184,78.6,184,78.7z M184.3,70c-0.2-0.2-0.7-0.4-0.7-0.5c0.4-0.8,0.9-1.5,1.4-2.3l0.1-0.4l0,0c0.2,0,0.3,0,0.5,0
			c-0.1,0-0.3,0.1-0.4,0.1c-0.1,0.1-0.1,0.2-0.2,0.3L184.3,70z M187.3,83.2c-0.2-0.6-0.4-1.1-0.6-1.7c-0.1-0.1-0.2-0.1-0.2-0.2
			c0-0.1,0-0.3,0-0.4c-0.3-0.8-0.6-1.5-0.8-2.3c0.3-0.1,0.6-0.2,0.9-0.3c0,0.9,0,1.7-0.1,2.6c0,0.1,0.1,0.2,0.1,0.3l0,0
			c0,0.1,0.1,0.2,0.1,0.3c0.5,0.4,0.9,0.9,1.4,1.3C187.8,83,187.6,83.1,187.3,83.2z M187.7,75.7c-0.1,0-0.5-0.5-0.7-0.8
			c0.4-0.3,0.8-0.6,1.2-0.9c0.2,0.3,0.3,0.5,0.6,0.9C188.4,75.2,188.1,75.6,187.7,75.7z M189.7,69.2l-0.1-0.2L189.7,69.2L189.7,69.2
			c0.1,0.1,0.1,0.2,0.1,0.3C189.8,69.4,189.7,69.3,189.7,69.2z"/>
		<path class="st0" d="M106.2,70.4c-3.4-7.4-1.1-17.6-1.9-25.5c-0.8-8.1-0.6-15.5-0.5-23.6c0.1-6,0.1-12.8-2.4-18.2
			c-0.9-1.9-2.6-2-4-1.3C91.3-2,86.5,1.4,79.8,1.9C72.5,2.3,65.1-0.9,58.1,2c-0.9,0.4-1.7,1.1-1.6,2.1c0,0.5,0.1,0.8,0.1,1.1
			c-1.2,3.3-1.7,6.9-1.9,10.5c0,0,0,0,0,0.1c0,0,0,0,0,0c-0.4,6.3,0.2,12.7,0.3,18.8c0.2,12.8-1.9,26-2.8,38.8
			c-0.2,3.6-3.1,14,2.6,15.2c7.5,1.5,15.1-0.9,22.6-1.7c1.9,0.2,3.7,0,5.6-0.1c1.2,0.6,2.9-0.3,2.8-1.7c-0.3-3.8-0.6-7.6-0.7-11.4
			c0-2.5-0.7-6.8,2.9-6.9c1.4,0,2.7,0,4,0.1c-1.1,3.2-0.2,6.9,0.8,10.6c-0.1,3.2,0.4,6.2,1.8,9.2v0c-0.2,2.2,2.4,2.6,3.7,1.4
			c2.6-0.9,5.3-1.1,8-1.2c1.1,0,2.2-0.9,2.1-2.1C108.3,80.4,108,74.4,106.2,70.4z M60.8,47.6c0.2,0.1,0.4,0.2,0.6,0.4
			c0.1,0.1-0.1,0.4-0.1,0.4c-0.2,0-0.5,0-0.7-0.1C60.7,48.1,60.8,47.8,60.8,47.6z M56.7,83.8c-0.1-0.4-0.5-1.1-0.3-1.4
			c1.5-2.2,3.1-4.3,4.8-6.3c0.2-0.2,1.8,0.2,2,0.7C64,78.6,59.2,84,56.7,83.8z M67.6,60l0-0.3l0.3,0.2L67.6,60z M74.2,23.5
			c-0.1-0.3-0.4-0.6-0.4-0.8c0-0.3,0.3-0.5,0.5-0.8c0.2,0.3,0.4,0.6,0.4,0.8C74.7,23,74.4,23.2,74.2,23.5z M78.6,73.2L78.3,73
			l0.3-0.1L78.6,73.2z M79.6,71l-0.1-0.3l0.3,0.1L79.6,71z M84.6,69.3l-0.2,0.1C84.5,69.4,84.7,69.2,84.6,69.3
			C84.7,69.2,84.6,69.3,84.6,69.3z M100.5,68.5l0.1,0.3l-0.3,0L100.5,68.5z M85.3,27.4c-0.1-0.4-0.3-0.9-0.2-1.1
			c0.3-0.3,0.8-0.4,1.2-0.6c0.1,0.3,0.1,0.6,0.2,1C86.1,26.9,85.7,27.1,85.3,27.4z M92,54.1v2.7l-1.7,1.7h-4.3V48.1l0.3-4.7l3.9-0.2
			l1.5,0.8l0.3,3.1V54.1z M92.2,42.3c-0.2-0.3-0.4-0.7-0.6-1c0.3-0.1,0.6-0.3,0.9-0.3c0.2,0,0.3,0.5,0.4,0.7
			C92.7,41.9,92.4,42.1,92.2,42.3z M95.4,6.2c-0.6-0.2-1.1-0.7-1.6-1.1c0.3-0.4,0.6-0.8,1.1-1.5c0.6,0.6,1.1,1,1.4,1.6
			C96.3,5.4,95.5,6.3,95.4,6.2z M98.5,84.9c-0.1-0.2-0.3-0.4-0.4-0.7c0-0.1,0.2-0.4,0.3-0.3c0.3,0.1,0.5,0.2,0.8,0.4
			C99,84.5,98.8,84.7,98.5,84.9z M100.6,82.1c-1.4-0.1-2.8-0.3-4.5-0.5c0.7-0.6,1.3-1.5,1.7-1.4c1.3,0.2,2.5,0.8,3.7,1.2
			C101.2,81.7,100.9,82.2,100.6,82.1z"/>
	</g>
</g>
</svg>
